Patient4_TMGait_0pt4_02_left_22_EMG.mot
version=1
nRows=26
nColumns=33
inDegrees=no
endheader
time	1LAddLong	2LGlutMax	3LGlutMed	4LIliopsoas	5LSemiMemb	6LBicFemLong	7LRecFem	8LVastMed	9LVastLat	10LGasMed	11LTibAnt	12lTibPost	13LPeroneusLong	14LSol	15LExtDigLong	16LFlexDigLong	17RAddLong	18RGlutMax	19RGlutMed	20RIliopsoas	21RSemiMemb	22RBicFemLong	23RRecFem	24RVastMed	25RVastLat	26RGasMed	27RTibAnt	28RTibPost	29RPeroneusLong	30RSol	31RExtDigLong	32RFlexDigLong
29.48	0.004883	-0.085602	-0.040894	0.01236	-0.013275	0.02655	-0.03067	0.010071	-0.11307	0.016937	0.028076	0.000763	0.041962	-0.076294	-0.001068	0.007629	-0.019836	-0.24124	-0.30991	-0.020599	0.10147	-0.036163	-0.005646	-0.043793	0.004578	-0.021362	0.11429	-0.014801	-0.096741	0.12528	-0.00061	0.001984
29.481	0.005035	-0.083008	-0.059509	0.019836	-0.027466	0.058441	-0.02243	0.009918	-0.11871	0.03006	0.050812	-0.001526	0.065765	-0.11383	-0.014648	0.006714	-0.015564	-0.20279	-0.86044	0.023346	0.040283	-0.017853	0.010071	-0.011139	0.000458	-0.022888	0.071716	-0.012665	-0.062408	0.069122	-0.000763	-0.002136
29.482	0.001221	-0.082703	-0.031738	-0.02594	-0.030212	0.030975	-0.025024	0.006409	-0.14145	0.053101	0.059814	-0.003967	0.093079	-0.086975	-0.034027	0.003052	-0.01236	-0.15305	-0.37766	0.059509	0.022278	-0.035706	0.10239	0.008087	-0.001068	-0.007629	0.075378	-0.003815	-0.11169	-0.087433	-0.001678	-0.002289
29.483	0.002136	-0.097046	0.017395	-0.022278	-0.000763	0.025024	-0.02533	0.011902	-0.16449	0.047607	0.029144	0.001373	0.024872	-0.094299	0.083008	0.002136	-0.008698	-0.17654	-0.1535	0.088654	0.00351	-0.012817	0.04837	-0.036469	-0.005493	0.038605	0.049438	-0.001526	0.059052	-0.24338	0.004272	-0.003052
29.484	0.005035	-0.07843	0.001831	0.008698	0.023651	0.055237	-0.019989	0.005646	-0.18036	0.035248	-0.026703	0.001526	-0.07431	-0.031738	0.20371	0.006409	-0.008392	-0.1387	-0.15366	0.1265	0.00885	0.001221	0.090332	0.025787	-0.003052	-0.024567	-0.052643	-0.001221	0.22553	-0.21408	-0.00061	0.000763
29.485	0.009003	-0.077972	-0.032654	-0.012817	0.01709	0.026093	-0.037689	0.004883	-0.20386	0.028534	0.000458	0.003662	-0.030823	-0.073395	0.06424	0.006866	0.01358	-0.04425	-0.13641	0.079956	0.006104	0.009766	0.17792	-0.081787	-0.017242	-0.017853	-0.049286	-0.003052	0.11917	-0.2417	0.001068	-0.000305
29.486	0.00946	-0.085449	-0.03891	-0.006409	0.006409	0.037537	-0.014954	0.006866	-0.20966	0.032501	0.002747	-0.001984	0.044556	-0.15869	0.006714	0.014801	0.00885	-0.056458	-0.058441	0.043945	0.011749	-0.000458	0.20828	-0.089722	-0.045013	0.005646	0.027313	-0.001373	0.11398	-0.18967	0.000763	-0.007477
29.487	0.009003	-0.076294	-0.048676	-0.008392	-0.018158	0.054626	-0.018768	0.012817	-0.23407	0.032654	0.015106	0.001678	-0.013275	-0.23712	-0.13992	0.01236	0.018311	-0.03067	-0.15396	-0.014038	-0.002441	0.023804	0.28107	-0.088348	-0.042114	0.015106	0.045471	-0.003815	0.20844	-0.059509	-0.001678	-0.010681
29.488	0.00824	-0.057068	-0.064545	0.006256	-0.009918	0.038147	-0.026245	0.011902	-0.24078	0.015411	0.013123	0.002136	-0.027161	-0.27496	-0.041962	0.011597	0.013275	-0.017395	-0.099487	-0.056915	-0.005188	0.010223	0.18677	-0.037231	0.00412	0.009766	0.059357	-0.008698	-0.45471	0.010986	-0.000153	-0.016785
29.489	0.003204	-0.045776	-0.087128	0.010529	-0.016632	0.040894	-0.029144	0.010223	-0.26977	-0.031128	0.045013	0.00061	-0.060425	-0.10147	0.22797	0.00473	0.013123	0.042877	0.052338	-0.10452	-0.002136	0.016937	0.13275	-0.050201	0.015717	0.010376	0.13702	-0.020599	-1.4355	0.098572	-0.001526	-0.011902
29.49	0.016632	-0.023041	-0.041504	0.004578	-0.029449	0.000763	-0.025787	0.01236	-0.2945	-0.050507	0.050201	0.004272	-0.087891	0.078125	0.28915	0.014954	0.002594	0.048676	0.008087	-0.13855	0.012512	0.049896	-0.09903	-0.089722	0.34454	-0.039063	0.30853	-0.017853	-1.0234	0.1474	-0.000305	-0.009766
29.491	-0.001068	-0.033264	-0.009766	0.001526	-0.016174	-0.012207	-0.017548	0.010376	-0.32638	-0.037384	0.004578	-0.003052	-0.01709	0.045929	0.19379	0.014191	0	0.050049	0.1712	-0.092773	0.006714	0.084229	0.083466	-0.09903	0.62637	-0.039978	0.34393	0.022736	0.90576	-0.087585	0.000458	-0.013123
29.492	0.001831	-0.018158	-0.007172	0.005798	-0.02182	-0.050659	-0.028992	0.011292	-0.33844	-0.065002	-0.028992	0.002136	0.037537	-0.021515	-0.25803	0.000763	0.010376	-0.019989	0.34134	-0.082245	0.00351	0.070953	0.19592	-0.19913	0.60989	-0.022278	0.23605	0.010376	2.4455	-0.14603	-0.000916	-0.007782
29.493	-0.016632	-0.007477	-0.006409	-0.00061	-0.015259	-0.032501	-0.016022	0.010529	-0.32989	-0.11398	-0.033112	0.001526	0.12543	-0.005493	-0.23407	-0.002441	0.001526	-0.027771	0.11887	0.067139	0.005951	0.074768	0.1564	-0.23056	0.48172	0.001831	0.010529	-0.005035	0.1535	-0.095673	-0.000916	0.000763
29.494	-0.004272	-0.053253	-0.035553	0.011902	0.005035	-0.037689	-0.017242	0.005493	-0.31632	-0.074768	0.021362	0.00412	0.072174	-0.051575	-0.16647	-0.010834	-0.00351	-0.02655	0.029907	0.14481	-0.001373	0.064392	0.092163	-0.21225	0.27206	0.009308	-0.041351	-0.009766	-0.47867	-0.13306	-0.001526	-0.01236
29.495	0.00824	-0.027313	-0.014038	-0.006256	-0.000916	0.015411	-0.021057	0.009613	-0.31143	0.024109	0.040131	-0.000153	-0.003357	-0.11627	0.097809	-0.002136	-0.00885	-0.051422	-0.090637	0.19211	-0.003357	0.034027	-0.2359	-0.12177	0.031281	0.003357	0.2446	-0.016479	-0.50156	-0.10834	-0.005798	-0.005493
29.496	0.005341	-0.038757	0.022125	0.003815	-0.029755	0.038147	-0.010986	0.004883	-0.26718	0.040588	0.066681	0.004425	-0.010681	-0.20767	0.046387	0.003357	-0.010986	-0.10101	0.20172	0.068817	-0.010223	-0.001373	-0.41489	0.08194	-0.44052	-0.005646	0.06958	-0.012665	-0.015259	-0.11612	-0.001373	-0.00473
29.497	0.011749	-0.054626	0.014801	-0.006866	0.018463	0.031891	-0.02243	0.005035	-0.22995	-0.002136	0.013733	-0.004578	0.035553	-0.20874	-0.076294	0.004425	0.005341	-0.11002	0.26504	-0.036316	-0.006866	-0.001831	-0.13229	0.1712	-0.85831	0.000305	-0.081635	-0.010986	0.40161	-0.019989	0.002136	0.007324
29.498	0.016937	-0.003204	0.004578	0.003815	-0.022583	-0.011597	-0.026703	0.002441	-0.20172	-0.045471	-0.12833	-0.000916	0.10208	-0.005035	-0.050354	-0.000458	0.02655	0.012054	0.072632	-0.019226	-0.005493	-0.023499	0.041199	0.023041	-0.76294	-0.001526	-0.065918	0.002136	0.56763	-0.043335	0.002136	0
29.499	0.007477	-0.031281	-0.022888	0.002136	0.020294	-0.016937	-0.014954	0.009766	-0.17227	-0.053864	-0.055084	0.002747	0.093384	0.10696	-0.036011	0.008087	0.024261	-0.057678	0.035706	0.022583	-0.041809	0	0.061798	-0.021057	-0.49057	0.008087	0.099792	0.008087	0.12543	-0.16602	0.003204	0.000458
29.5	-0.001373	-0.02121	-0.030212	-0.003052	0.001831	0.000153	0.001221	0.009308	-0.17151	-0.034332	-0.003204	0.002747	0.045624	0.043182	-0.046844	0.006104	0.002899	-0.083618	-0.55817	0.001526	-0.11032	0.052032	-0.021515	-0.046997	-0.17425	0.008087	0.016479	-0.000153	-0.80841	-0.17288	0.001068	0.00351
29.501	-0.003204	-0.00824	-0.037079	-0.006104	-0.039825	-0.02533	-0.00885	0.012207	-0.15411	-0.004883	0.009155	0.002594	-0.062103	-0.0177	-0.019836	-0.000153	0.008087	-0.066986	-0.24216	-0.079193	-0.018921	0.003052	-0.092621	-0.23163	-0.080261	0.003967	-0.42267	-0.007324	-0.9079	-0.077209	-0.001068	0.007477
29.502	0.014954	0.000763	-0.043945	0.004425	-0.019836	-0.026398	-0.000153	0.010376	-0.12299	0.009766	0.014954	-0.002289	-0.022583	-0.038605	-0.024872	-0.001678	-0.001221	-0.12116	0.67719	-0.1329	0.030518	-0.02594	-0.28473	-0.05722	0.028076	-0.001373	-0.551	-0.00473	0.44525	0.045776	0.001984	-0.006104
29.503	0.013733	-0.001068	-0.043945	-0.002747	0.001831	-0.047302	-0.009918	-0.002441	-0.085754	-0.007782	0.006104	-0.005798	0.019379	-0.008087	0.003815	-0.00412	-0.00412	-0.11627	0.34454	-0.080872	0.006866	0.010834	-0.11536	0.15091	0.006409	-0.001831	-0.24338	-0.001221	0.85907	0.098419	-0.00061	-0.005798
29.504	0.018616	-0.010986	-0.059662	0.005035	0.032196	-0.034485	-0.017853	0.013733	-0.044556	-0.016632	0.015869	-0.007935	0.037689	-0.009613	0.024414	0.004425	0.015411	-0.12848	-0.40009	0.058899	-0.001831	-0.007019	0.10651	0.086212	-0.066376	-0.001831	-0.17487	-0.006256	0.35645	0.11246	0.001221	-0.008698
29.505	0.00885	0.000305	-0.063782	0.006409	0.023804	-0.001068	0.000153	0.002899	-0.012207	-0.024261	0.007782	-0.003204	0.039978	-0.079346	0.054016	0.014801	-0.008087	-0.13718	-0.091705	0.14801	0.002594	0.010376	-0.12558	0.13473	-0.037384	-0.013275	-0.21637	-0.010223	0.31525	0.15045	0.001831	-0.00885
